<?xml version="1.0" encoding="utf-8"?>
<!-- Generator: Adobe Illustrator 19.2.1, SVG Export Plug-In . SVG Version: 6.00 Build 0)  -->
<svg version="1.1" id="layer" xmlns="http://www.w3.org/2000/svg" xmlns:xlink="http://www.w3.org/1999/xlink" x="0px" y="0px"
	 viewBox="0 0 652 652" style="enable-background:new 0 0 652 652;" xml:space="preserve">
<path d="M323.5,77l145.7,244.6c3.1,5.2,1.4,12-3.8,15.2c-1.7,1-3.7,1.6-5.6,1.6H168.4c-6.1,0-11-5-11-11.1c0-2,0.5-4,1.6-5.7
	L304.7,77c3.1-5.2,9.9-6.9,15-3.8C321.3,74.1,322.6,75.4,323.5,77z M314.1,104.2l-126.3,212h252.7L314.1,104.2z"/>
<path d="M95.8,435.4c0-3.1,0.9-5.6,2.8-7.5c1.8-1.9,4.2-2.8,6.9-2.8c2.9,0,5.2,1,7,2.9c1.8,1.9,2.7,4.4,2.7,7.5v84.1
	c0,9.7-2.1,18.6-6.4,26.6c-4.3,7.9-10.1,14.2-17.4,18.8c-7.3,4.6-15.5,6.9-24.5,6.9c-9,0-17.2-2.3-24.7-6.9
	c-7.4-4.6-13.3-10.8-17.5-18.8c-4.2-7.9-6.3-16.8-6.3-26.6c0-9.7,2-18.6,5.9-26.5c3.9-8,9.3-14.2,16.2-18.7c6.9-4.5,14.5-6.8,23-6.8
	c6.8,0,13.1,1.5,19,4.5c5.1,2.6,9.6,6.2,13.4,10.7V435.4z M66.9,553.1c5.6,0,10.6-1.5,15.1-4.4c4.5-2.9,8.1-6.9,10.6-12.1
	c2.6-5.1,3.9-10.9,3.9-17.3c0-6.4-1.3-12.1-3.9-17.2c-2.6-5.1-6.1-9.1-10.6-12c-4.5-2.9-9.6-4.4-15.1-4.4s-10.6,1.5-15.1,4.4
	c-4.5,2.9-8.1,6.9-10.7,12c-2.6,5.1-3.9,10.8-3.9,17.1c0,6.4,1.3,12.1,3.9,17.2c2.6,5.1,6.2,9.2,10.7,12.1
	C56.2,551.7,61.3,553.1,66.9,553.1z M198.3,546.2c5.9,5.1,13.1,7.7,21.6,7.7c3.3,0,6.8-0.7,10.5-2c3.6-1.3,6.6-2.9,9-4.8
	c1.8-1.5,3.9-2.2,6.2-2.2c2.4,0,4.3,0.7,5.7,2.1c2.3,2,3.4,4.4,3.4,7c0,2.5-1.1,4.6-3.1,6.3c-4,3.4-8.9,6.1-14.8,8.3
	c-5.9,2.1-11.5,3.2-16.9,3.2c-9.6,0-18.2-2.2-25.8-6.7c-7.6-4.4-13.6-10.6-17.8-18.5c-4.3-7.9-6.4-16.8-6.4-26.8c0-10,2-19,6.1-26.9
	c4-8,9.7-14.2,16.9-18.6c7.2-4.4,15.4-6.7,24.5-6.7c9,0,16.8,2.1,23.4,6.4c6.6,4.3,11.6,10.2,15.2,17.9c3.5,7.6,5.3,16.4,5.3,26.2
	c0,2.6-0.8,4.8-2.5,6.5c-1.7,1.7-3.8,2.6-6.3,2.6h-64.5C189.2,534.9,192.7,541.3,198.3,546.2z M235.2,492.3
	c-4.5-4.7-10.5-7.1-17.8-7.1c-8.2,0-14.8,2.4-19.8,7.1c-4.8,4.5-8,10.6-9.4,18.1h55.3C242.3,502.8,239.5,496.8,235.2,492.3z
	 M323.7,435.2c0-2.9,0.9-5.4,2.7-7.3c1.8-1.9,4.1-2.9,6.8-2.9c2.8,0,5.1,1,6.8,2.9c1.8,1.9,2.7,4.4,2.7,7.3v100.7
	c0,4.4,0.8,8,2.3,10.8c1.5,2.7,3.3,4,5.4,4h4.3c2.5,0,4.7,1,6.3,2.9c1.6,1.9,2.4,4.3,2.4,7.3c0,3-1.2,5.5-3.6,7.4
	c-2.3,1.8-5.3,2.8-9,2.8h-0.3c-5.1,0-9.7-1.5-13.9-4.5c-4.1-3-7.3-7.2-9.5-12.6c-2.2-5.3-3.4-11.3-3.4-18V435.2z M447.2,534.2
	c0,4.7,1.2,8.6,3.6,11.8c2.4,3.1,5.2,4.6,8.6,4.6h5.9c2.3,0,4.3,1,5.9,2.9c1.6,1.9,2.4,4.3,2.4,7.3c0,3-1.1,5.5-3.2,7.4
	c-2.1,1.9-4.7,2.8-7.9,2.8h-3.1c-5.8,0-11.1-1.6-15.9-4.8c-4.8-3.2-8.5-7.6-11.3-13.2c-2.7-5.5-4.1-11.8-4.1-18.7v-44.6h-7
	c-2.6,0-4.8-0.8-6.5-2.5c-1.7-1.7-2.5-3.7-2.5-6.2c0-2.7,0.8-4.9,2.5-6.6c1.7-1.6,3.8-2.5,6.5-2.5h7v-25.6c0-2.9,0.9-5.4,2.7-7.3
	c1.8-1.9,4.1-2.9,6.8-2.9c2.8,0,5.1,1,6.8,2.9c1.8,1.9,2.7,4.4,2.7,7.3v25.6H461c2.6,0,4.8,0.8,6.5,2.5c1.7,1.7,2.5,3.9,2.5,6.6
	c0,2.5-0.8,4.6-2.5,6.2c-1.7,1.6-3.8,2.5-6.5,2.5h-13.8V534.2z M590.4,567.1c-5.9,3-12.2,4.5-19,4.5c-8.4,0-16.1-2.3-23-6.8
	c-6.9-4.5-12.3-10.8-16.2-18.7c-3.9-7.9-5.9-16.8-5.9-26.5c0-9.7,2.1-18.6,6.3-26.6c4.2-8,10.1-14.2,17.5-18.8
	c7.4-4.6,15.7-6.9,24.7-6.9c9,0,17.2,2.3,24.5,6.9c7.3,4.6,13.1,10.8,17.4,18.8c4.3,8,6.4,16.8,6.4,26.6v41.1c0,3-0.9,5.4-2.8,7.4
	c-1.8,2-4.2,3-6.9,3s-5.1-1-6.9-3c-1.8-2-2.8-4.4-2.8-7.4v-4.3C600,560.9,595.5,564.5,590.4,567.1z M574.9,553.1
	c5.6,0,10.6-1.5,15.1-4.4c4.5-2.9,8.1-6.9,10.6-12c2.6-5.1,3.9-10.8,3.9-17.2c0-6.4-1.3-12.1-3.9-17.3c-2.6-5.1-6.1-9.2-10.6-12.1
	c-4.5-2.9-9.6-4.4-15.1-4.4c-5.6,0-10.6,1.5-15.1,4.4c-4.5,2.9-8.1,6.9-10.7,12.1c-2.6,5.1-3.9,10.9-3.9,17.2
	c0,6.4,1.3,12.1,3.9,17.1c2.6,5.1,6.2,9.1,10.7,12C564.2,551.7,569.3,553.1,574.9,553.1z"/>
</svg>
